<?xml version="1.0" standalone="no"?>
<!DOCTYPE svg PUBLIC "-//W3C//DTD SVG 20010904//EN"
 "http://www.w3.org/TR/2001/REC-SVG-20010904/DTD/svg10.dtd">
<svg version="1.0" xmlns="http://www.w3.org/2000/svg"
 width="496.000000pt" height="247.000000pt" viewBox="0 0 496.000000 247.000000"
 preserveAspectRatio="xMidYMid meet">

<g transform="translate(0.000000,247.000000) scale(0.100000,-0.100000)"
fill="#000000" stroke="none">
<path d="M0 1235 l0 -1235 2480 0 2480 0 0 1235 0 1235 -2480 0 -2480 0 0
-1235z m3398 326 l22 -11 -22 -44 c-20 -42 -22 -44 -59 -39 -45 6 -69 -9 -69
-43 0 -22 4 -24 50 -24 l50 0 0 -50 0 -50 -50 0 -50 0 0 -180 0 -180 -65 0
-65 0 0 180 0 180 -30 0 c-29 0 -30 1 -30 50 0 48 1 50 29 50 26 0 29 3 34 46
10 91 72 138 173 131 33 -2 70 -10 82 -16z m202 -306 l0 -315 -65 0 -65 0 0
315 0 315 65 0 65 0 0 -315z m-2288 198 c21 -18 24 -53 5 -53 -7 0 -18 9 -24
19 -13 22 -48 18 -57 -5 -7 -18 -36 -18 -36 -1 0 23 40 57 67 57 15 0 35 -7
45 -17z m573 -202 l51 -154 38 104 c21 57 47 128 58 157 l20 53 55 -3 55 -3
54 -145 c29 -80 55 -149 57 -155 2 -5 27 61 56 148 l53 157 59 0 c37 0 59 -4
59 -11 0 -8 -120 -348 -157 -446 -3 -9 -27 -13 -67 -13 l-61 0 -48 138 c-26
75 -51 143 -56 150 -8 14 -24 -24 -92 -221 l-24 -67 -61 0 c-40 0 -64 4 -67
13 -38 101 -157 438 -157 446 0 8 20 11 62 9 l61 -3 52 -154z m996 148 c89
-30 149 -117 149 -216 l0 -53 -170 0 -169 0 8 -22 c12 -34 68 -68 111 -68 21
0 57 7 81 15 l43 16 34 -34 34 -34 -33 -26 c-97 -73 -252 -59 -339 32 -47 48
-70 102 -70 163 0 87 63 182 144 219 46 21 127 24 177 8z m977 -146 c37 -84
69 -150 73 -145 3 4 35 73 70 155 l64 147 63 0 c47 0 63 -3 59 -12 -2 -7 -67
-151 -142 -320 l-138 -308 -63 0 -64 0 26 58 c15 31 33 75 41 97 l15 40 -96
213 c-53 118 -96 218 -96 223 0 6 26 9 61 7 l62 -3 65 -152z m-2478 92 l0 -35
-110 0 -110 0 0 35 0 35 110 0 110 0 0 -35z m-380 -85 l0 -80 -177 0 c-98 0
-184 4 -192 9 -29 19 9 99 62 131 28 17 51 20 170 20 l137 0 0 -80z m132 53
l3 -28 133 -3 132 -3 0 31 c0 30 0 30 55 30 l55 0 0 -295 0 -295 -240 0 -240
0 0 295 0 295 49 0 c47 0 50 -2 53 -27z m-532 -88 c0 -12 -72 -75 -81 -70 -13
9 -11 49 3 63 11 11 78 18 78 7z m231 -75 l169 0 0 -40 0 -40 -104 0 -105 0
13 -42 12 -43 92 -3 92 -3 0 -30 0 -30 -216 3 c-213 3 -216 3 -235 27 -27 33
-26 119 2 173 21 40 21 40 66 34 25 -3 122 -6 214 -6z m-35 -260 l204 0 0 -25
0 -25 -144 0 -145 0 -3 -46 c-3 -53 -21 -70 -61 -60 -23 5 -26 12 -29 58 -2
44 -6 53 -23 56 -25 5 -55 31 -55 48 0 10 6 11 26 4 14 -6 117 -10 230 -10z
m1361 -242 c-3 -8 -6 -5 -6 6 -1 11 2 17 5 13 3 -3 4 -12 1 -19z m430 -10 c-3
-7 -5 -2 -5 12 0 14 2 19 5 13 2 -7 2 -19 0 -25z m276 17 c-3 -9 -8 -14 -10
-11 -3 3 -2 9 2 15 9 16 15 13 8 -4z m94 -17 c-3 -7 -5 -2 -5 12 0 14 2 19 5
13 2 -7 2 -19 0 -25z m160 0 c-3 -7 -5 -2 -5 12 0 14 2 19 5 13 2 -7 2 -19 0
-25z m190 0 c-3 -7 -5 -2 -5 12 0 14 2 19 5 13 2 -7 2 -19 0 -25z m250 0 c-3
-7 -5 -2 -5 12 0 14 2 19 5 13 2 -7 2 -19 0 -25z m-74 7 c-3 -9 -8 -14 -10
-11 -3 3 -2 9 2 15 9 16 15 13 8 -4z"/>
<path d="M2743 1280 c-17 -10 -37 -28 -43 -39 -10 -21 -9 -21 100 -21 60 0
110 3 110 6 0 17 -24 46 -50 59 -39 20 -79 19 -117 -5z"/>
<path d="M1122 1173 c3 -47 4 -48 39 -51 44 -4 62 15 57 60 -3 32 -5 33 -51
36 l-48 3 3 -48z m58 2 c0 -8 -7 -15 -15 -15 -8 0 -15 7 -15 15 0 8 7 15 15
15 8 0 15 -7 15 -15z"/>
<path d="M1253 1208 c2 -8 21 -13 47 -13 26 0 45 5 48 13 2 8 -11 12 -48 12
-37 0 -50 -4 -47 -12z"/>
<path d="M1260 1150 c-25 -17 7 -30 75 -30 63 0 92 10 81 29 -9 14 -135 14
-156 1z"/>
<path d="M1175 1040 c-19 -20 -32 -27 -39 -20 -5 5 -14 10 -18 10 -15 0 -8
-27 13 -46 21 -19 21 -19 55 21 52 62 43 92 -11 35z"/>
<path d="M1255 1060 c-10 -16 17 -21 90 -18 44 2 70 8 73 16 5 15 -153 17
-163 2z"/>
<path d="M1253 988 c2 -8 21 -13 47 -13 26 0 45 5 48 13 2 8 -11 12 -48 12
-37 0 -50 -4 -47 -12z"/>
<path d="M1120 869 l0 -50 48 3 c41 3 47 6 50 27 2 12 1 34 -2 47 -6 21 -12
24 -51 24 l-45 0 0 -51z m60 1 c0 -11 -7 -20 -15 -20 -8 0 -15 9 -15 20 0 11
7 20 15 20 8 0 15 -9 15 -20z"/>
<path d="M1257 914 c-18 -19 0 -24 79 -24 64 0 85 3 82 13 -5 13 -148 23 -161
11z"/>
<path d="M1257 844 c-14 -14 6 -24 49 -24 32 0 44 4 44 15 0 11 -11 15 -43 15
-24 0 -47 -3 -50 -6z"/>
<path d="M632 1058 c-29 -29 -2 -72 40 -66 42 6 32 78 -11 78 -9 0 -22 -5 -29
-12z"/>
</g>
</svg>
