<?xml version="1.0" encoding="UTF-8"?>
<svg version="1.1" xmlns="http://www.w3.org/2000/svg" width="147" height="191">
<path d="M0 0 C48.51 0 97.02 0 147 0 C147 63.03 147 126.06 147 191 C98.49 191 49.98 191 0 191 C0 127.97 0 64.94 0 0 Z " fill="#DCE7F0" transform="translate(0,0)"/>
<path d="M0 0 C2.20043082 2.20043082 2.46783237 3.10524567 3.125 6.0625 C3.29257813 6.77535156 3.46015625 7.48820312 3.6328125 8.22265625 C4.74250223 16.61616051 3.55085075 24.86348906 2.4609375 33.1953125 C2.21593002 35.09203201 2.21593002 35.09203201 1.9659729 37.02706909 C1.61885708 39.70206448 1.26667535 42.3763404 0.91162109 45.05029297 C0.55517976 47.74058019 0.20822545 50.43179855 -0.12939453 53.12451172 C-2.16337733 69.27111421 -4.77220855 84.87300495 -9.29568481 100.51734924 C-10.69560529 105.45194914 -11.94668056 110.42848048 -13.17123413 115.40927124 C-14.34390078 119.78294342 -15.84920048 121.86952822 -19 125 C-19.1587762 127.270753 -19.1587762 127.270753 -18.4375 129.6875 C-18.22222656 130.64527344 -18.00695312 131.60304687 -17.78515625 132.58984375 C-17.52605469 133.71519531 -17.26695313 134.84054688 -17 136 C-16.42500574 138.91086532 -15.89830355 141.82946476 -15.375 144.75 C-15.2402124 145.45858154 -15.1054248 146.16716309 -14.96655273 146.8972168 C-14.84094971 147.585979 -14.71534668 148.27474121 -14.5859375 148.984375 C-14.4729834 149.58991211 -14.3600293 150.19544922 -14.24365234 150.81933594 C-13.90371927 153.86170286 -14 156.93870109 -14 160 C-35.45 160 -56.9 160 -79 160 C-79 145.38118812 -79 145.38118812 -77.625 140.1875 C-77.21701172 138.59421875 -77.21701172 138.59421875 -76.80078125 136.96875 C-76.53652344 135.9890625 -76.27226563 135.009375 -76 134 C-75.60153611 132.39648472 -75.20525413 130.79242334 -74.8125 129.1875 C-74.544375 128.135625 -74.27625 127.08375 -74 126 C-74.99 125.67 -75.98 125.34 -77 125 C-77 124.34 -77 123.68 -77 123 C-78.65 122.67 -80.3 122.34 -82 122 C-82.16302853 120.10705765 -82.27886529 118.21001605 -82.375 116.3125 C-82.44460937 115.25675781 -82.51421875 114.20101562 -82.5859375 113.11328125 C-81.90841548 109.51338091 -80.66513462 108.26909231 -77.82516479 106.03916931 C-74.62703799 104.21829525 -71.30724428 104.36745531 -67.7421875 104.4765625 C-66.95788361 104.48126556 -66.17357971 104.48596863 -65.36550903 104.49081421 C-62.86775792 104.51204595 -60.37217403 104.56846568 -57.875 104.625 C-56.22137475 104.64152977 -54.56772612 104.65587196 -52.9140625 104.66796875 C-44.24016781 104.75690847 -35.63305506 105.09521629 -27 106 C-27 103.36 -27 100.72 -27 98 C-27.68964844 97.97421875 -28.37929687 97.9484375 -29.08984375 97.921875 C-35.83780068 97.51459091 -41.03075996 96.16885582 -47 93 C-47 91.35 -47 89.7 -47 88 C-49.31 87.67 -51.62 87.34 -54 87 C-55.125 83.25 -55.125 83.25 -54 81 C-54.28112064 78.99199544 -54.61067967 76.98985949 -55 75 C-53.02 75 -51.04 75 -49 75 C-49.04125 73.9275 -49.0825 72.855 -49.125 71.75 C-49 68 -49 68 -48.0065918 66.24609375 C-46.54869879 62.9929733 -46.73415295 59.81076214 -46.76953125 56.3125 C-46.76998947 55.57298096 -46.77044769 54.83346191 -46.7709198 54.0715332 C-46.77393419 52.51153962 -46.78179615 50.95154883 -46.79418945 49.39160156 C-46.81243604 47.00835462 -46.81469903 44.625497 -46.81445312 42.2421875 C-46.81936932 40.72395499 -46.82519808 39.2057251 -46.83203125 37.6875 C-46.83314407 36.97698486 -46.8342569 36.26646973 -46.83540344 35.53442383 C-46.86711095 32.21702232 -46.97788306 29.17289568 -48 26 C-49.65 26.33 -51.3 26.66 -53 27 C-53.33 27.99 -53.66 28.98 -54 30 C-67.81776765 30.55353075 -67.81776765 30.55353075 -73 27 C-75.41807105 30.62710658 -75.30616929 33.32570327 -75.30078125 37.51953125 C-75.30720894 38.62381721 -75.30720894 38.62381721 -75.31376648 39.75041199 C-75.31950652 41.30796278 -75.32001242 42.86554038 -75.31567383 44.4230957 C-75.3125251 46.793604 -75.33593589 49.16285014 -75.36132812 51.53320312 C-75.36360245 53.0494776 -75.36430399 54.56575541 -75.36328125 56.08203125 C-75.372491 56.78536087 -75.38170074 57.48869049 -75.39118958 58.21333313 C-75.33107941 64.68457896 -72.99072452 69.05910298 -69 74 C-71.73586044 73.46802714 -73.47726885 72.73082621 -75.12597656 70.42578125 C-78.48418644 63.63825407 -78.61291689 56.94915709 -78.52148438 49.51586914 C-78.4999962 47.43713253 -78.52138534 45.36183629 -78.546875 43.28320312 C-78.56245221 35.87715322 -78.17966904 30.25799988 -74 24 C-69.03278321 19.27508647 -65.04139621 18.74997408 -58.43359375 18.85546875 C-53.60082348 19.14248721 -51.65957649 20.30974553 -48.3125 23.8125 C-44.95142969 28.44532665 -43.7688245 32.0383031 -43.5859375 37.73828125 C-43.52792969 39.33833008 -43.52792969 39.33833008 -43.46875 40.97070312 C-43.4378125 42.07349609 -43.406875 43.17628906 -43.375 44.3125 C-43.31699219 45.99569336 -43.31699219 45.99569336 -43.2578125 47.71289062 C-43.16377989 50.47509852 -43.07812659 53.237304 -43 56 C-42.59950439 55.50411377 -42.19900879 55.00822754 -41.78637695 54.49731445 C-41.25488037 53.8549585 -40.72338379 53.21260254 -40.17578125 52.55078125 C-39.65153564 51.91052002 -39.12729004 51.27025879 -38.5871582 50.6105957 C-36.54172427 48.53495693 -34.85718626 48.24490168 -32 48 C-31.505 47.01 -31.505 47.01 -31 46 C-33.97 46 -36.94 46 -40 46 C-40.63567182 29.02520809 -40.63567182 29.02520809 -35.25 23.0625 C-31.94108701 21.49995775 -29.62002488 21.56310045 -26 22 C-21.11643899 24.44178051 -18.94745313 26.91498348 -17 32 C-17 32.99 -17 33.98 -17 35 C-16.34 35 -15.68 35 -15 35 C-15.04125 33.72125 -15.0825 32.4425 -15.125 31.125 C-14.99443638 8.30900814 -14.99443638 8.30900814 -10 2.4375 C-6.01958753 -0.79658513 -4.89513312 -1.34616161 0 0 Z " fill="#F3735B" transform="translate(125,29)"/>
<path d="M0 0 C0.53753906 0.62519531 1.07507813 1.25039062 1.62890625 1.89453125 C4.40327122 4.35809421 6.338325 4.90230798 9.9375 5.6875 C10.95714844 5.91824219 11.97679688 6.14898437 13.02734375 6.38671875 C15.68300412 6.93460138 18.33957412 7.47575402 21 8 C21 10.64 21 13.28 21 16 C20.39722733 15.99111755 19.79445465 15.98223511 19.17341614 15.9730835 C12.89557383 15.88453878 6.61790912 15.82423611 0.33959961 15.78027344 C-2.00292161 15.76016735 -4.3453927 15.73287834 -6.68774414 15.69824219 C-10.05627823 15.64968159 -13.42414831 15.62702078 -16.79296875 15.609375 C-17.83897751 15.58872986 -18.88498627 15.56808472 -19.96269226 15.54681396 C-25.83540863 15.54364593 -25.83540863 15.54364593 -31.15625 17.8359375 C-33.57844141 20.67893335 -33.69190507 22.55175546 -33.8125 26.25 C-33.86019531 27.32765625 -33.90789063 28.4053125 -33.95703125 29.515625 C-33.97121094 30.33546875 -33.98539063 31.1553125 -34 32 C-33.236875 32.103125 -32.47375 32.20625 -31.6875 32.3125 C-28.74185826 33.06603626 -27.82796992 33.63200993 -26 36 C-26.24969932 38.94585741 -26.63794347 41.56758139 -27.25 44.4375 C-27.39824219 45.20126953 -27.54648437 45.96503906 -27.69921875 46.75195312 C-28.37709754 50.19833689 -29.14767131 53.59068522 -30 57 C-30.33 61.29 -30.66 65.58 -31 70 C-9.55 70 11.9 70 34 70 C33.34 65.05 32.68 60.1 32 55 C31.505 50.545 31.505 50.545 31 46 C43.87 46 56.74 46 70 46 C70 54.58 70 63.16 70 72 C21.49 72 -27.02 72 -77 72 C-77 63.42 -77 54.84 -77 46 C-68.42 45.67 -59.84 45.34 -51 45 C-49.68 41.7 -48.36 38.4 -47 35 C-46.01 33.68 -45.02 32.36 -44 31 C-43.19059351 28.59355843 -43.19059351 28.59355843 -42.625 26.0625 C-41.34811327 21.46165417 -39.64141692 19.1745686 -36 16 C-34.70480005 13.83379456 -34.70480005 13.83379456 -34 12 C-33.34 12 -32.68 12 -32 12 C-32 11.01 -32 10.02 -32 9 C-26.92380132 6.67201927 -21.99741303 5.06972111 -16.5625 3.8125 C-15.85029297 3.63525391 -15.13808594 3.45800781 -14.40429688 3.27539062 C-9.4937983 2.12024155 -5.0427297 1.8351306 0 2 C0 1.34 0 0.68 0 0 Z " fill="#F9E0B5" transform="translate(77,119)"/>
<path d="M0 0 C-0.52879595 7.98571509 -2.53914417 15.46392005 -4.70092773 23.13110352 C-5.31493918 25.32120022 -5.90682701 27.51654672 -6.49804688 29.71289062 C-6.88929461 31.11755874 -7.28182767 32.52186962 -7.67578125 33.92578125 C-8.02552002 35.18817627 -8.37525879 36.45057129 -8.7355957 37.7512207 C-10.04158671 41.1068535 -11.38297548 42.61263554 -14 45 C-14.1587762 47.270753 -14.1587762 47.270753 -13.4375 49.6875 C-13.22222656 50.64527344 -13.00695312 51.60304687 -12.78515625 52.58984375 C-12.39650391 54.27787109 -12.39650391 54.27787109 -12 56 C-11.42500574 58.91086532 -10.89830355 61.82946476 -10.375 64.75 C-10.2402124 65.45858154 -10.1054248 66.16716309 -9.96655273 66.8972168 C-9.84094971 67.585979 -9.71534668 68.27474121 -9.5859375 68.984375 C-9.4729834 69.58991211 -9.3600293 70.19544922 -9.24365234 70.81933594 C-8.90371927 73.86170286 -9 76.93870109 -9 80 C-30.45 80 -51.9 80 -74 80 C-74 65.38118812 -74 65.38118812 -72.625 60.1875 C-72.35300781 59.1253125 -72.08101562 58.063125 -71.80078125 56.96875 C-71.40439453 55.49921875 -71.40439453 55.49921875 -71 54 C-70.60153611 52.39648472 -70.20525413 50.79242334 -69.8125 49.1875 C-69.544375 48.135625 -69.27625 47.08375 -69 46 C-69.99 45.67 -70.98 45.34 -72 45 C-73.52491998 41.95016004 -73.23562548 39.3576631 -73 36 C-72.00952148 34.31860352 -72.00952148 34.31860352 -70 33 C-67.13884056 32.62229474 -64.46889501 32.41877051 -61.59765625 32.33984375 C-60.76471542 32.30443985 -59.9317746 32.26903595 -59.07359314 32.2325592 C-56.40356395 32.1207256 -53.7333373 32.02780421 -51.0625 31.9375 C-34.78365356 31.9904956 -34.78365356 31.9904956 -19 29 C-16.81593015 26.5177719 -15.94959889 24.13756359 -15 21 C-14.70738281 20.34386719 -14.41476563 19.68773437 -14.11328125 19.01171875 C-11.8786643 13.96613569 -11.65837028 9.46607547 -12 4 C-12.66 4 -13.32 4 -14 4 C-13.67 3.01 -13.34 2.02 -13 1 C-8.86878727 -0.59947396 -4.35505422 -0.06404492 0 0 Z " fill="#133251" transform="translate(120,109)"/>
<path d="M0 0 C8.25 0 16.5 0 25 0 C24.34 1.98 23.68 3.96 23 6 C22.70222656 6.92941406 22.40445312 7.85882813 22.09765625 8.81640625 C19.90751031 14.62649152 18.06662862 17.55144631 12.3125 20.1875 C7.5795053 22 7.5795053 22 5 22 C5 22.66 5 23.32 5 24 C18.2 24 31.4 24 45 24 C45 20.7 45 17.4 45 14 C45.33 14 45.66 14 46 14 C46 17.3 46 20.6 46 24 C67.45 24 88.9 24 111 24 C110.34 19.05 109.68 14.1 109 9 C108.505 4.545 108.505 4.545 108 0 C120.87 0 133.74 0 147 0 C147 8.58 147 17.16 147 26 C98.49 26 49.98 26 0 26 C0 17.42 0 8.84 0 0 Z " fill="#6A91CB" transform="translate(0,165)"/>
<path d="M0 0 C1.0828125 0.7425 1.0828125 0.7425 2.1875 1.5 C7.2502823 4.05573145 13.50496627 3.74832235 19 3 C20.69986936 1.54564347 20.69986936 1.54564347 22 0 C22.99 0 23.98 0 25 0 C27.41009173 3.72403448 27.29004429 7.40185363 27.265625 11.6875 C27.26753845 12.42701904 27.2694519 13.16653809 27.27142334 13.9284668 C27.27278135 15.48844748 27.26911176 17.04843961 27.26074219 18.60839844 C27.25003685 20.99179547 27.26065011 23.37443882 27.2734375 25.7578125 C27.27211584 27.27604332 27.2695533 28.79427368 27.265625 30.3125 C27.26967346 31.02301514 27.27372192 31.73353027 27.27789307 32.46557617 C27.24252197 36.21061838 26.88367733 38.76878273 25 42 C24.61250787 44.32495277 24.27017161 46.65851268 24 49 C22.02 49 20.04 49 18 49 C18.33 50.98 18.66 52.96 19 55 C20.485 55.495 20.485 55.495 22 56 C20.515 56.495 20.515 56.495 19 57 C19 57.99 19 58.98 19 60 C21.64 60.33 24.28 60.66 27 61 C27 61.33 27 61.66 27 62 C20.73158976 62.94617513 14.33335316 63.62907043 8 63 C5.4345406 60.4345406 5.45953913 58.52313332 5 55 C4.34 55 3.68 55 3 55 C2 48.25 2 48.25 2 46 C0.67189785 44.32916181 -0.66172696 42.66270287 -2 41 C-3.19266647 37.42200058 -3.18099866 34.13621677 -3.203125 30.41015625 C-3.20882507 29.66922226 -3.21452515 28.92828827 -3.22039795 28.16490173 C-3.22983535 26.59896264 -3.23637693 25.0330038 -3.24023438 23.46704102 C-3.24995053 21.07468029 -3.28098858 18.68317519 -3.3125 16.29101562 C-3.31902948 14.76823426 -3.32428017 13.24544676 -3.328125 11.72265625 C-3.3404718 11.00900406 -3.3528186 10.29535187 -3.36553955 9.56007385 C-3.34699508 5.41554122 -2.93427686 3.00932849 0 0 Z " fill="#C5DAFB" transform="translate(52,55)"/>
<path d="M0 0 C4.71708017 2.96502182 7.46423152 7.1751209 9.1875 12.375 C9.50634766 15.14575195 9.50634766 15.14575195 9.6015625 18.11328125 C9.65957031 19.71333008 9.65957031 19.71333008 9.71875 21.34570312 C9.7496875 22.44849609 9.780625 23.55128906 9.8125 24.6875 C9.87050781 26.37069336 9.87050781 26.37069336 9.9296875 28.08789062 C10.02372011 30.85009852 10.10937341 33.612304 10.1875 36.375 C10.58727051 35.87476318 10.98704102 35.37452637 11.39892578 34.85913086 C12.19532471 33.89052124 12.19532471 33.89052124 13.0078125 32.90234375 C13.53133301 32.25773193 14.05485352 31.61312012 14.59423828 30.94897461 C16.1875 29.375 16.1875 29.375 19.0625 28.9375 C19.76375 29.081875 20.465 29.22625 21.1875 29.375 C20.8575 31.025 20.5275 32.675 20.1875 34.375 C25.01192184 33.10553486 25.01192184 33.10553486 28.1875 29.375 C31.91540821 29.63508662 33.96757546 30.22200902 37.0625 32.375 C39.99617832 36.51666351 39.9229496 39.45135847 39.1875 44.375 C38.20224139 48.50482652 37.09092986 52.56814028 35.1875 56.375 C32.5475 56.375 29.9075 56.375 27.1875 56.375 C27.1875 57.035 27.1875 57.695 27.1875 58.375 C20.9175 58.375 14.6475 58.375 8.1875 58.375 C8.5175 56.065 8.8475 53.755 9.1875 51.375 C8.5275 51.375 7.8675 51.375 7.1875 51.375 C7.1875 50.715 7.1875 50.055 7.1875 49.375 C6.5275 49.375 5.8675 49.375 5.1875 49.375 C5.34976074 48.71056885 5.51202148 48.0461377 5.67919922 47.36157227 C6.29278102 43.75641078 6.33077064 40.23403782 6.3203125 36.58984375 C6.32126923 35.85173965 6.32222595 35.11363556 6.32321167 34.35316467 C6.32388968 32.79916295 6.32206194 31.24515833 6.31787109 29.69116211 C6.31250978 27.31682977 6.31783285 24.94268593 6.32421875 22.56835938 C6.32355805 21.05468708 6.32227706 19.54101491 6.3203125 18.02734375 C6.32233673 17.31996567 6.32436096 16.61258759 6.32644653 15.8837738 C6.31072479 12.57068058 6.21119189 9.54315866 5.1875 6.375 C3.5375 6.705 1.8875 7.035 0.1875 7.375 C-0.1425 8.365 -0.4725 9.355 -0.8125 10.375 C-14.63026765 10.92853075 -14.63026765 10.92853075 -19.8125 7.375 C-22.23057105 11.00210658 -22.11866929 13.70070327 -22.11328125 17.89453125 C-22.11756638 18.63072189 -22.1218515 19.36691254 -22.12626648 20.12541199 C-22.13200652 21.68296278 -22.13251242 23.24054038 -22.12817383 24.7980957 C-22.1250251 27.168604 -22.14843589 29.53785014 -22.17382812 31.90820312 C-22.17610245 33.4244776 -22.17680399 34.94075541 -22.17578125 36.45703125 C-22.184991 37.16036087 -22.19420074 37.86369049 -22.20368958 38.58833313 C-22.14357941 45.05957896 -19.80322452 49.43410298 -15.8125 54.375 C-18.54836044 53.84302714 -20.28976885 53.10582621 -21.93847656 50.80078125 C-25.29668644 44.01325407 -25.42541689 37.32415709 -25.33398438 29.89086914 C-25.3124962 27.81213253 -25.33388534 25.73683629 -25.359375 23.65820312 C-25.37495221 16.25215322 -24.99216904 10.63299988 -20.8125 4.375 C-14.79743294 -1.34664916 -7.89406026 -1.75423561 0 0 Z " fill="#3E8D7F" transform="translate(71.8125,48.625)"/>
<path d="M0 0 C0.99 0.495 0.99 0.495 2 1 C2.23559365 8.80772071 1.31811269 16.27659407 0.25 24.00390625 C0.07011957 25.33618804 -0.10923343 26.66854113 -0.28808594 28.0009613 C-0.75631555 31.47860161 -1.23162311 34.9552375 -1.70849609 38.43170166 C-2.19542455 41.99098963 -2.67553566 45.55119654 -3.15625 49.11132812 C-4.09755967 56.07512425 -5.04636244 63.03788045 -6 70 C-6.66 70 -7.32 70 -8 70 C-8.495 71.485 -8.495 71.485 -9 73 C-9 72.01 -9 71.02 -9 70 C-10.8141927 70.28094582 -12.62635001 70.57506433 -14.4375 70.875 C-15.44683594 71.03742188 -16.45617187 71.19984375 -17.49609375 71.3671875 C-18.73552734 71.68042969 -18.73552734 71.68042969 -20 72 C-20.33 72.66 -20.66 73.32 -21 74 C-20.34 74 -19.68 74 -19 74 C-16.89330972 78.21338055 -17.647448 81.88108979 -19.01171875 86.2109375 C-22.89375816 96.58635814 -22.89375816 96.58635814 -26 100 C-35.99920762 103.6321908 -48.6990401 102.67862024 -59.25 103.125 C-61.17060286 103.21157791 -63.09117624 103.29881235 -65.01171875 103.38671875 C-69.67417394 103.59871391 -74.3369376 103.80182941 -79 104 C-79.33 106.97 -79.66 109.94 -80 113 C-81.32 112.67 -82.64 112.34 -84 112 C-84.16302853 110.10705765 -84.27886529 108.21001605 -84.375 106.3125 C-84.44460937 105.25675781 -84.51421875 104.20101562 -84.5859375 103.11328125 C-83.90841548 99.51338091 -82.66513462 98.26909231 -79.82516479 96.03916931 C-76.62703799 94.21829525 -73.30724428 94.36745531 -69.7421875 94.4765625 C-68.95788361 94.48126556 -68.17357971 94.48596863 -67.36550903 94.49081421 C-64.86775792 94.51204595 -62.37217403 94.56846568 -59.875 94.625 C-58.22137475 94.64152977 -56.56772612 94.65587196 -54.9140625 94.66796875 C-46.24016781 94.75690847 -37.63305506 95.09521629 -29 96 C-29 93.36 -29 90.72 -29 88 C-29.68964844 87.97421875 -30.37929687 87.9484375 -31.08984375 87.921875 C-37.83780068 87.51459091 -43.03075996 86.16885582 -49 83 C-49 81.35 -49 79.7 -49 78 C-51.31 77.67 -53.62 77.34 -56 77 C-56.5625 75.0625 -56.5625 75.0625 -57 73 C-54.83108941 70.83108941 -50.50568527 71.81343005 -47.58178711 71.81054688 C-39.32979909 71.89570871 -31.17530647 72.95116343 -23 74 C-22.67 72.35 -22.34 70.7 -22 69 C-17.38 68.67 -12.76 68.34 -8 68 C-7.9175 65.73125 -7.835 63.4625 -7.75 61.125 C-7.31038124 52.23631894 -5.93830647 43.54201063 -4.51928711 34.76513672 C-3.18897879 26.46998734 -2.18403236 18.190138 -1.39453125 9.828125 C-1.05322042 6.51639616 -0.59213516 3.2747649 0 0 Z " fill="#1E344C" transform="translate(127,39)"/>
<path d="M0 0 C2.92768684 2.92768684 2.95535532 6.02662346 3 10 C2.64228899 12.85727193 2.1223374 15.66146288 1.59375 18.4921875 C0.94973457 22.29696287 0.55167792 26.09886782 0.1875 29.9375 C-0.81487241 40.22203989 -2.22910406 50.45064655 -3.625 60.6875 C-3.79934067 61.96607376 -3.79934067 61.96607376 -3.97720337 63.27047729 C-4.64771927 68.1808377 -5.32228442 73.09062836 -6 78 C-10.62 78.33 -15.24 78.66 -20 79 C-20.33 80.65 -20.66 82.3 -21 84 C-28.06491819 84.28577197 -34.98057986 83.80054645 -42 83.0625 C-42.83700439 82.97564941 -43.67400879 82.88879883 -44.53637695 82.79931641 C-47.88012962 82.43145262 -50.79343948 82.06885351 -54 81 C-54.495 78.03 -54.495 78.03 -55 75 C-53.02 75 -51.04 75 -49 75 C-49 72.69 -49 70.38 -49 68 C-48.01 68.33 -47.02 68.66 -46 69 C-46 69.66 -46 70.32 -46 71 C-45.34 71 -44.68 71 -44 71 C-44.33 73.31 -44.66 75.62 -45 78 C-38.73 78 -32.46 78 -26 78 C-26 77.34 -26 76.68 -26 76 C-23.36 76 -20.72 76 -18 76 C-14.86624783 65.66008114 -14.86624783 65.66008114 -15 55 C-17.56036598 51.15945104 -20.63779201 50.18969309 -25 49 C-25.309375 49.639375 -25.61875 50.27875 -25.9375 50.9375 C-27 53 -27 53 -28 54 C-29.65 54 -31.3 54 -33 54 C-32.34 50.04 -31.68 46.08 -31 42 C-31.66 42 -32.32 42 -33 42 C-35.22791523 39.45381117 -36.90542812 37.39493518 -37.140625 33.92578125 C-36.85388525 30.94258497 -36.34133193 28.52012484 -34.6875 26 C-33 25 -33 25 -29 25 C-27.61876037 26.96722008 -26.28511874 28.96868328 -25 31 C-23.515 31.495 -23.515 31.495 -22 32 C-22 33.32 -22 34.64 -22 36 C-22.66 36 -23.32 36 -24 36 C-24.33 38.64 -24.66 41.28 -25 44 C-22.03 43.505 -22.03 43.505 -19 43 C-19 42.34 -19 41.68 -19 41 C-17.68 41 -16.36 41 -15 41 C-11.03032727 48.93934547 -10.60811425 61.58255091 -13 70.125 C-13.33 71.07375 -13.66 72.0225 -14 73 C-14.66 73 -15.32 73 -16 73 C-16 73.99 -16 74.98 -16 76 C-13.36 76 -10.72 76 -8 76 C-8 72.04 -8 68.08 -8 64 C-7.34 64 -6.68 64 -6 64 C-6.02835938 62.83855469 -6.05671875 61.67710938 -6.0859375 60.48046875 C-6.08410953 56.31543686 -5.45695082 52.38400189 -4.625 48.3125 C-3.14432307 40.58920524 -2.30708124 32.87714817 -1.64697266 25.04418945 C-1.29943616 20.94989718 -0.81451806 17.03009368 0 13 C0.06459042 11.23022239 0.08611065 9.45829848 0.0625 7.6875 C0.05347656 6.80449219 0.04445312 5.92148437 0.03515625 5.01171875 C0.02355469 4.34785156 0.01195312 3.68398438 0 3 C-2.64 3 -5.28 3 -8 3 C-7.67 2.01 -7.34 1.02 -7 0 C-4.29393021 -1.35303489 -2.8671629 -0.7884698 0 0 Z " fill="#C6726A" transform="translate(125,29)"/>
<path d="M0 0 C2.31 0 4.62 0 7 0 C4.93009693 14.83024667 4.93009693 14.83024667 0.375 21.3125 C-5.54054652 25.51565148 -13.82267824 25.35668697 -20.84765625 25.6328125 C-21.74495956 25.67437469 -22.64226288 25.71593689 -23.5667572 25.75875854 C-26.39839746 25.88823513 -29.2303688 26.00680357 -32.0625 26.125 C-33.99677733 26.21151513 -35.9310227 26.29874801 -37.86523438 26.38671875 C-42.57649438 26.59943894 -47.28808318 26.80238607 -52 27 C-52.33 29.97 -52.66 32.94 -53 36 C-54.32 35.67 -55.64 35.34 -57 35 C-57.16302853 33.10705765 -57.27886529 31.21001605 -57.375 29.3125 C-57.44460937 28.25675781 -57.51421875 27.20101562 -57.5859375 26.11328125 C-56.90841548 22.51338091 -55.66513462 21.26909231 -52.82516479 19.03916931 C-49.62703799 17.21829525 -46.30724428 17.36745531 -42.7421875 17.4765625 C-41.95788361 17.48126556 -41.17357971 17.48596863 -40.36550903 17.49081421 C-37.86775792 17.51204595 -35.37217403 17.56846568 -32.875 17.625 C-31.22137475 17.64152977 -29.56772612 17.65587196 -27.9140625 17.66796875 C-19.24016781 17.75690847 -10.63305506 18.09521629 -2 19 C-2 16.36 -2 13.72 -2 11 C-3.65 11 -5.3 11 -7 11 C-7 10.67 -7 10.34 -7 10 C-5.35 10 -3.7 10 -2 10 C-1.34 6.7 -0.68 3.4 0 0 Z " fill="#AC5B49" transform="translate(100,116)"/>
<path d="M0 0 C0.53753906 0.62519531 1.07507813 1.25039062 1.62890625 1.89453125 C4.40327122 4.35809421 6.338325 4.90230798 9.9375 5.6875 C10.95714844 5.91824219 11.97679687 6.14898437 13.02734375 6.38671875 C15.68300412 6.93460138 18.33957412 7.47575402 21 8 C21 10.64 21 13.28 21 16 C20.39500671 15.99555878 19.79001343 15.99111755 19.16668701 15.98654175 C12.87270468 15.94231153 6.57876646 15.91213483 0.28466797 15.89013672 C-2.06463413 15.88007616 -4.41392369 15.86642627 -6.76318359 15.84912109 C-10.13902885 15.82487548 -13.5147086 15.81351741 -16.890625 15.8046875 C-18.46738007 15.78920364 -18.46738007 15.78920364 -20.07598877 15.77340698 C-21.05670349 15.77325592 -22.03741821 15.77310486 -23.04785156 15.77294922 C-23.90944885 15.768508 -24.77104614 15.76406677 -25.65875244 15.75949097 C-28.18887124 16.01940215 -29.81729847 16.72715804 -32 18 C-31.88590407 16.54077307 -31.75834456 15.08259402 -31.625 13.625 C-31.55539063 12.81289062 -31.48578125 12.00078125 -31.4140625 11.1640625 C-31 9 -31 9 -29 7 C-26.86328125 6.4375 -26.86328125 6.4375 -24.3125 6 C-19.43224649 5.10563897 -14.78654068 3.89888409 -10.0625 2.375 C-6.71374413 1.7661353 -3.39854178 1.94335764 0 2 C0 1.34 0 0.68 0 0 Z " fill="#FADAAE" transform="translate(77,119)"/>
<path d="M0 0 C2.43800966 0.30887453 4.87535367 0.62194662 7.3125 0.9375 C8.00279297 1.02451172 8.69308594 1.11152344 9.40429688 1.20117188 C12.40142288 1.59210135 15.12450119 2.0415004 18 3 C18 5.64 18 8.28 18 11 C18.66 11.33 19.32 11.66 20 12 C19.67 14.31 19.34 16.62 19 19 C17.02 19 15.04 19 13 19 C13.33 20.98 13.66 22.96 14 25 C14.99 25.33 15.98 25.66 17 26 C16.01 26.33 15.02 26.66 14 27 C14 28.32 14 29.64 14 31 C8.06 30.01 8.06 30.01 2 29 C1.09624347 22.67370431 1.09624347 17.32629569 2 11 C1.34 11 0.68 11 0 11 C0 7.37 0 3.74 0 0 Z " fill="#8BB1F0" transform="translate(57,85)"/>
<path d="M0 0 C1.32 0.99 2.64 1.98 4 3 C3.54639364 5.68837371 3.08726026 8.37561225 2.625 11.0625 C2.43550781 12.19075195 2.43550781 12.19075195 2.2421875 13.34179688 C1.43500321 18.00328614 0.30091637 22.44679269 -1 27 C-1.26042136 28.80575185 -1.47555048 30.61919753 -1.625 32.4375 C-1.74875 33.943125 -1.8725 35.44875 -2 37 C-8.6 37 -15.2 37 -22 37 C-22 35.68 -22 34.36 -22 33 C-21.37351562 32.87882812 -20.74703125 32.75765625 -20.1015625 32.6328125 C-18.87566406 32.38144531 -18.87566406 32.38144531 -17.625 32.125 C-16.40683594 31.88136719 -16.40683594 31.88136719 -15.1640625 31.6328125 C-12.81326077 31.13341068 -12.81326077 31.13341068 -11 29 C-11.06408586 26.6433883 -11.20084876 24.28854169 -11.375 21.9375 C-11.55159733 17.81919113 -11.44888458 14.74545102 -9.26171875 11.11328125 C-7.0625 8.75 -7.0625 8.75 -4.84765625 6.734375 C-2.74928939 5.03997172 -2.74928939 5.03997172 -2 2 C-1.34 2 -0.68 2 0 2 C0 1.34 0 0.68 0 0 Z " fill="#EECA88" transform="translate(47,152)"/>
<path d="M0 0 C5.15990778 3.24337061 7.6719032 7.61850513 9.1875 13.375 C9.32275391 16.81005859 9.32275391 16.81005859 9.1640625 20.5234375 C9.12652359 21.50952499 9.12652359 21.50952499 9.08822632 22.51553345 C9.00672001 24.59426917 8.90987079 26.67195318 8.8125 28.75 C8.75418908 30.1679272 8.69688745 31.58589629 8.640625 33.00390625 C8.50124797 36.46149886 8.34811336 39.91832125 8.1875 43.375 C7.8575 43.375 7.5275 43.375 7.1875 43.375 C7.16244385 42.3962793 7.1373877 41.41755859 7.11157227 40.40917969 C7.01726017 36.77119296 6.91709797 33.13338657 6.81518555 29.49560547 C6.77192662 27.92240626 6.73024526 26.34916283 6.69018555 24.77587891 C6.63226338 22.51190885 6.56863286 20.24815949 6.50390625 17.984375 C6.48719376 17.28318542 6.47048126 16.58199585 6.45326233 15.85955811 C6.35398978 12.57266179 6.17937328 9.52357995 5.1875 6.375 C3.5375 6.705 1.8875 7.035 0.1875 7.375 C-0.1425 8.365 -0.4725 9.355 -0.8125 10.375 C-14.63026765 10.92853075 -14.63026765 10.92853075 -19.8125 7.375 C-22.23057105 11.00210658 -22.11866929 13.70070327 -22.11328125 17.89453125 C-22.11756638 18.63072189 -22.1218515 19.36691254 -22.12626648 20.12541199 C-22.13200652 21.68296278 -22.13251242 23.24054038 -22.12817383 24.7980957 C-22.1250251 27.168604 -22.14843589 29.53785014 -22.17382812 31.90820312 C-22.17610245 33.4244776 -22.17680399 34.94075541 -22.17578125 36.45703125 C-22.184991 37.16036087 -22.19420074 37.86369049 -22.20368958 38.58833313 C-22.14357941 45.05957896 -19.80322452 49.43410298 -15.8125 54.375 C-18.54836044 53.84302714 -20.28976885 53.10582621 -21.93847656 50.80078125 C-25.29668644 44.01325407 -25.42541689 37.32415709 -25.33398438 29.89086914 C-25.3124962 27.81213253 -25.33388534 25.73683629 -25.359375 23.65820312 C-25.37495221 16.25215322 -24.99216904 10.63299988 -20.8125 4.375 C-14.79743294 -1.34664916 -7.89406026 -1.75423561 0 0 Z " fill="#6F91C0" transform="translate(71.8125,48.625)"/>
<path d="M0 0 C0.05402274 2.10388569 0.09280256 4.20816714 0.125 6.3125 C0.14820312 7.48425781 0.17140625 8.65601562 0.1953125 9.86328125 C0 13 0 13 -2 16 C-2.66 16 -3.32 16 -4 16 C-4 13.36 -4 10.72 -4 8 C-9.61 7.34 -15.22 6.68 -21 6 C-21.33 9.3 -21.66 12.6 -22 16 C-21.34 16 -20.68 16 -20 16 C-20 21.94 -20 27.88 -20 34 C-13.4 34.66 -6.8 35.32 0 36 C0 36.33 0 36.66 0 37 C-6.26841024 37.94617513 -12.66664684 38.62907043 -19 38 C-21.5654594 35.4345406 -21.54046087 33.52313332 -22 30 C-22.66 30 -23.32 30 -24 30 C-25 23.25 -25 23.25 -25 21 C-25.639375 20.319375 -26.27875 19.63875 -26.9375 18.9375 C-29.58222502 15.17077042 -30.27077464 11.59414303 -30 7 C-27.43944909 4.43944909 -25.72959283 4.3721353 -22.1875 3.7109375 C-21.02992187 3.49179688 -19.87234375 3.27265625 -18.6796875 3.046875 C-16.85824219 2.71429688 -16.85824219 2.71429688 -15 2.375 C-13.17855469 2.03082031 -13.17855469 2.03082031 -11.3203125 1.6796875 C-2.34198289 0 -2.34198289 0 0 0 Z " fill="#BBD5F8" transform="translate(79,80)"/>
<path d="M0 0 C0.66 0.33 1.32 0.66 2 1 C1.67 3.31 1.34 5.62 1 8 C5.54268633 6.73227358 8.40517258 5.01304104 12 2 C12.08097324 4.27024968 12.13917704 6.54132075 12.1875 8.8125 C12.23970703 10.70935547 12.23970703 10.70935547 12.29296875 12.64453125 C12 16 12 16 10.78125 17.90625 C8.56301305 19.26832532 6.90076957 19.49994423 4.3125 19.6875 C3.10013672 19.78611328 3.10013672 19.78611328 1.86328125 19.88671875 C0.94095703 19.94279297 0.94095703 19.94279297 0 20 C0 21.32 0 22.64 0 24 C-6.6 24 -13.2 24 -20 24 C-20 23.34 -20 22.68 -20 22 C-18.21046815 21.16209211 -16.41830305 20.32980604 -14.625 19.5 C-13.62726562 19.0359375 -12.62953125 18.571875 -11.6015625 18.09375 C-9 17 -9 17 -7 17 C-6.82984375 16.35933594 -6.6596875 15.71867188 -6.484375 15.05859375 C-4.92595112 9.49634683 -3.08078528 4.88676286 0 0 Z " fill="#E5DBC1" transform="translate(25,165)"/>
<path d="M0 0 C1.38123963 1.96722008 2.71488126 3.96868328 4 6 C4.99 6.33 5.98 6.66 7 7 C7 8.32 7 9.64 7 11 C6.34 11 5.68 11 5 11 C4.67 13.64 4.34 16.28 4 19 C6.97065509 18.65772428 6.97065509 18.65772428 10 18 C10.33 17.34 10.66 16.68 11 16 C12.5625 17.0625 12.5625 17.0625 14 19 C13.6875 22.6875 13.6875 22.6875 13 26 C10.03 25.34 7.06 24.68 4 24 C3.34 25.32 2.68 26.64 2 28 C1.67 28.33 1.34 28.66 1 29 C-0.65 29 -2.3 29 -4 29 C-3.34 25.04 -2.68 21.08 -2 17 C-2.66 17 -3.32 17 -4 17 C-6.22791523 14.45381117 -7.90542812 12.39493518 -8.140625 8.92578125 C-7.85388525 5.94258497 -7.34133193 3.52012484 -5.6875 1 C-4 0 -4 0 0 0 Z " fill="#DF9D90" transform="translate(96,54)"/>
<path d="M0 0 C6.21276112 2.53582086 8.11514859 7.38134138 10.99609375 13.22265625 C12 16 12 16 11 19 C9.68 19 8.36 19 7 19 C7 19.66 7 20.32 7 21 C5.02 21.33 3.04 21.66 1 22 C1.33 19.36 1.66 16.72 2 14 C2.66 14 3.32 14 4 14 C4 12.68 4 11.36 4 10 C3.401875 9.9175 2.80375 9.835 2.1875 9.75 C-0.62932273 8.78423221 -1.47799132 7.51131433 -3 5 C-3 4.34 -3 3.68 -3 3 C-5.49004504 3.56076801 -5.49004504 3.56076801 -8 5 C-9.36564528 7.85544014 -10.13430744 9.8919636 -9.75 13.0625 C-9.5025 13.701875 -9.255 14.34125 -9 15 C-8.4740625 16.36125 -8.4740625 16.36125 -7.9375 17.75 C-7.628125 18.4925 -7.31875 19.235 -7 20 C-6.34 20 -5.68 20 -5 20 C-5 21.32 -5 22.64 -5 24 C-7.97 24 -10.94 24 -14 24 C-14.63567182 7.02520809 -14.63567182 7.02520809 -9.25 1.0625 C-5.94108701 -0.50004225 -3.62002488 -0.43689955 0 0 Z " fill="#2A4656" transform="translate(99,51)"/>
<path d="M0 0 C3.01047291 1.15106317 4.25846234 2.14601763 6.125 4.8125 C7.43826312 11.88391682 5.29052986 19.48144028 2.125 25.8125 C-0.845 25.4825 -3.815 25.1525 -6.875 24.8125 C-7.18303162 18.9598992 -6.61986088 13.55956857 -5.5 7.8125 C-5.37391357 7.1414624 -5.24782715 6.4704248 -5.11791992 5.77905273 C-4.77433503 4.10742542 -4.3321862 2.45669257 -3.875 0.8125 C-1.875 -0.1875 -1.875 -0.1875 0 0 Z " fill="#365484" transform="translate(104.875,79.1875)"/>
<path d="M0 0 C0.99 0.33 1.98 0.66 3 1 C3 1.66 3 2.32 3 3 C3.66 3 4.32 3 5 3 C4.67 5.31 4.34 7.62 4 10 C10.27 10 16.54 10 23 10 C23 9.34 23 8.68 23 8 C25.31 8.33 27.62 8.66 30 9 C29.34 11.31 28.68 13.62 28 16 C20.93508181 16.28577197 14.01942014 15.80054645 7 15.0625 C6.16299561 14.97564941 5.32599121 14.88879883 4.46362305 14.79931641 C1.11987038 14.43145262 -1.79343948 14.06885351 -5 13 C-5.33 11.02 -5.66 9.04 -6 7 C-4.02 7 -2.04 7 0 7 C0 4.69 0 2.38 0 0 Z " fill="#DBA39C" transform="translate(76,97)"/>
<path d="M0 0 C0.87454834 0.00523682 1.74909668 0.01047363 2.65014648 0.01586914 C3.59438477 0.0190918 4.53862305 0.02231445 5.51147461 0.02563477 C6.50469727 0.03401367 7.49791992 0.04239258 8.52124023 0.05102539 C9.51833008 0.05553711 10.51541992 0.06004883 11.54272461 0.06469727 C14.01478872 0.07652532 16.48673541 0.0930069 18.95874023 0.11352539 C18.08374023 7.86352539 18.08374023 7.86352539 16.95874023 10.11352539 C9.26394313 10.63130613 3.7399107 9.86409869 -3.04125977 6.11352539 C-3.08398077 4.44740634 -3.08189809 2.77969654 -3.04125977 1.11352539 C-2.04125977 0.11352539 -2.04125977 0.11352539 0 0 Z " fill="#458B79" transform="translate(81.041259765625,115.886474609375)"/>
<path d="M0 0 C0.66 0.33 1.32 0.66 2 1 C2.23559365 8.80772071 1.31811269 16.27659407 0.25 24.00390625 C0.07011957 25.33618804 -0.10923343 26.66854113 -0.28808594 28.0009613 C-0.75631555 31.47860161 -1.23162311 34.9552375 -1.70849609 38.43170166 C-2.19542455 41.99098963 -2.67553566 45.55119654 -3.15625 49.11132812 C-4.09755967 56.07512425 -5.04636244 63.03788045 -6 70 C-6.66 70 -7.32 70 -8 70 C-8.33 70.99 -8.66 71.98 -9 73 C-9 72.01 -9 71.02 -9 70 C-10.77226453 70.28284018 -12.542788 70.57660498 -14.3125 70.875 C-15.29863281 71.03742188 -16.28476563 71.19984375 -17.30078125 71.3671875 C-20.20059827 71.88085454 -20.20059827 71.88085454 -23 74 C-22.67 72.35 -22.34 70.7 -22 69 C-17.38 68.67 -12.76 68.34 -8 68 C-7.9175 65.73125 -7.835 63.4625 -7.75 61.125 C-7.31038124 52.23631894 -5.93830647 43.54201063 -4.51928711 34.76513672 C-3.18897879 26.46998734 -2.18403236 18.190138 -1.39453125 9.828125 C-1.05322042 6.51639616 -0.59213516 3.2747649 0 0 Z " fill="#39364E" transform="translate(127,39)"/>
<path d="M0 0 C1.38123963 1.96722008 2.71488126 3.96868328 4 6 C4.99 6.33 5.98 6.66 7 7 C7 8.32 7 9.64 7 11 C6.34 11 5.68 11 5 11 C4.67 12.32 4.34 13.64 4 15 C1.69 15.33 -0.62 15.66 -3 16 C-3 15.34 -3 14.68 -3 14 C-3.99 14 -4.98 14 -6 14 C-8.43448963 10.34826555 -8.13022994 9.00982663 -7.4765625 4.875 C-7 3 -7 3 -5.6875 1 C-4 0 -4 0 0 0 Z " fill="#E4A599" transform="translate(96,54)"/>
<path d="M0 0 C1.74768261 5.24304784 -0.09703457 10.63532306 -1 16 C-7.6 16 -14.2 16 -21 16 C-21 14.68 -21 13.36 -21 12 C-20.37351562 11.87882813 -19.74703125 11.75765625 -19.1015625 11.6328125 C-18.28429687 11.46523437 -17.46703125 11.29765625 -16.625 11.125 C-15.40683594 10.88136719 -15.40683594 10.88136719 -14.1640625 10.6328125 C-11.81326077 10.13341068 -11.81326077 10.13341068 -10 8 C-9.3574765 5.93125966 -9.3574765 5.93125966 -9 4 C-6.69 4.33 -4.38 4.66 -2 5 C-1.34 3.35 -0.68 1.7 0 0 Z " fill="#DEBC97" transform="translate(46,173)"/>
<path d="M0 0 C-9.1150267 4.77453779 -22.16873672 6.73731097 -32.2890625 4.4921875 C-35.6683553 3.87865595 -38.88017478 3.90542219 -42.3125 3.9375 C-43.56675781 3.94652344 -44.82101563 3.95554688 -46.11328125 3.96484375 C-47.06589844 3.97644531 -48.01851562 3.98804688 -49 4 C-49 6.97 -49 9.94 -49 13 C-48.34 13 -47.68 13 -47 13 C-47 13.66 -47 14.32 -47 15 C-47.99 14.67 -48.98 14.34 -50 14 C-51.52491998 10.95016004 -51.23562548 8.3576631 -51 5 C-49.72247314 3.30911255 -49.72247314 3.30911255 -48 2 C-45.08195998 1.61065372 -42.35096813 1.39492194 -39.421875 1.3046875 C-38.57707581 1.26691193 -37.73227661 1.22913635 -36.86187744 1.19021606 C-34.15828704 1.07174034 -31.45441619 0.97263409 -28.75 0.875 C-26.06014949 0.76651884 -23.37052129 0.65399864 -20.68096924 0.5383606 C-19.00828048 0.46767438 -17.33538258 0.40172431 -15.66229248 0.34127808 C-12.06002742 0.19971647 -8.63032216 -0.05523659 -5.05566406 -0.58935547 C-2 -1 -2 -1 0 0 Z " fill="#2E354B" transform="translate(98,140)"/>
<path d="M0 0 C2.31 0 4.62 0 7 0 C5.85294784 8.21829133 4.65777207 15.01334189 0 22 C-1.32 21.34 -2.64 20.68 -4 20 C-3.34 19.67 -2.68 19.34 -2 19 C-2 16.36 -2 13.72 -2 11 C-3.65 11 -5.3 11 -7 11 C-7 10.67 -7 10.34 -7 10 C-5.35 10 -3.7 10 -2 10 C-1.34 6.7 -0.68 3.4 0 0 Z " fill="#E57861" transform="translate(100,116)"/>
<path d="M0 0 C0.33 0 0.66 0 1 0 C1.08097324 2.27024968 1.13917704 4.54132075 1.1875 6.8125 C1.22230469 8.07707031 1.25710937 9.34164062 1.29296875 10.64453125 C1 14 1 14 -0.21875 15.90625 C-2.43698695 17.26832532 -4.09923043 17.49994423 -6.6875 17.6875 C-7.89986328 17.78611328 -7.89986328 17.78611328 -9.13671875 17.88671875 C-10.05904297 17.94279297 -10.05904297 17.94279297 -11 18 C-11.64208984 16.19995117 -11.64208984 16.19995117 -12 14 C-10.28278831 11.58351139 -8.60404258 9.49186031 -6.625 7.3125 C-5.84382813 6.42208008 -5.84382813 6.42208008 -5.046875 5.51367188 C-1.61480655 1.61480655 -1.61480655 1.61480655 0 0 Z " fill="#8997AD" transform="translate(36,167)"/>
<path d="M0 0 C0.99 0 1.98 0 3 0 C2.67 5.28 2.34 10.56 2 16 C4.97 16 7.94 16 11 16 C10.67 16.99 10.34 17.98 10 19 C9.071875 19.28875 8.14375 19.5775 7.1875 19.875 C3.39600619 21.21317429 2.26864916 22.75907262 0 26 C-0.66 26.66 -1.32 27.32 -2 28 C-2 19.42 -2 10.84 -2 2 C-1.34 2 -0.68 2 0 2 C0 1.34 0 0.68 0 0 Z " fill="#C4D8E6" transform="translate(83,59)"/>
<path d="M0 0 C1.32 0 2.64 0 4 0 C3.39922992 2.02077207 2.70692647 4.01387326 2 6 C1.71640625 6.88171875 1.4328125 7.7634375 1.140625 8.671875 C-1.05060662 14.5469163 -2.87338932 17.52396762 -8.6875 20.1875 C-13.4204947 22 -13.4204947 22 -16 22 C-16 22.66 -16 23.32 -16 24 C-2.8 24 10.4 24 24 24 C24 20.7 24 17.4 24 14 C24.33 14 24.66 14 25 14 C25 17.96 25 21.92 25 26 C10.95954237 26.12011798 -2.98420248 25.85128488 -17 25 C-16.7734375 22.63671875 -16.7734375 22.63671875 -16 20 C-14.0390625 18.70703125 -14.0390625 18.70703125 -11.625 17.8125 C-6.54569797 16.08164839 -6.54569797 16.08164839 -3.0859375 12.23046875 C-0.86010148 6.26118849 -0.86010148 6.26118849 0 0 Z " fill="#8495B1" transform="translate(21,165)"/>
<path d="M0 0 C0.90105469 0.00902344 1.80210938 0.01804688 2.73046875 0.02734375 C3.41753906 0.03894531 4.10460937 0.05054688 4.8125 0.0625 C4.8125 0.3925 4.8125 0.7225 4.8125 1.0625 C2.8325 1.3925 0.8525 1.7225 -1.1875 2.0625 C-1.1875 2.3925 -1.1875 2.7225 -1.1875 3.0625 C-1.79078125 3.13726562 -2.3940625 3.21203125 -3.015625 3.2890625 C-4.21445312 3.48628906 -4.21445312 3.48628906 -5.4375 3.6875 C-6.22640625 3.80351563 -7.0153125 3.91953125 -7.828125 4.0390625 C-11.35796303 5.57021741 -12.35153054 7.72467658 -14.1875 11.0625 C-14.55941361 13.81049816 -14.72786812 16.14018964 -14.68359375 18.875 C-14.68504898 19.6069458 -14.68650421 20.3388916 -14.68800354 21.09301758 C-14.68635166 22.63269044 -14.67487032 24.17238105 -14.65405273 25.71191406 C-14.62507961 28.05605886 -14.63346078 30.39794016 -14.64648438 32.7421875 C-14.64024618 34.24480255 -14.63185459 35.74741053 -14.62109375 37.25 C-14.62402939 37.94391846 -14.62696503 38.63783691 -14.62998962 39.3527832 C-14.50691096 45.76557751 -12.14544344 50.16218908 -8.1875 55.0625 C-10.92336044 54.53052714 -12.66476885 53.79332621 -14.31347656 51.48828125 C-17.67168644 44.70075407 -17.80041689 38.01165709 -17.70898438 30.57836914 C-17.6874962 28.49963253 -17.70888534 26.42433629 -17.734375 24.34570312 C-17.74995221 16.93965322 -17.36716904 11.32049988 -13.1875 5.0625 C-8.94049441 1.02266541 -5.77943213 -0.07505756 0 0 Z " fill="#4B6880" transform="translate(64.1875,47.9375)"/>
<path d="M0 0 C0.66 0 1.32 0 2 0 C2 5.94 2 11.88 2 18 C8.6 18.66 15.2 19.32 22 20 C22 20.33 22 20.66 22 21 C15.73158976 21.94617513 9.33335316 22.62907043 3 22 C0.4345406 19.4345406 0.45953913 17.52313332 0 14 C-0.66 14 -1.32 14 -2 14 C-3.00488128 8.97559361 -3.02945024 5.73538389 -1 1 C-0.67 0.67 -0.34 0.34 0 0 Z " fill="#C2D9ED" transform="translate(57,96)"/>
<path d="M0 0 C0.99 0 1.98 0 3 0 C6.96967273 7.93934547 7.39188575 20.58255091 5 29.125 C4.67 30.07375 4.34 31.0225 4 32 C3.34 32 2.68 32 2 32 C2 33.32 2 34.64 2 36 C4.97 36 7.94 36 11 36 C11 34.02 11 32.04 11 30 C11.33 30 11.66 30 12 30 C12 32.31 12 34.62 12 37 C5.565 37.495 5.565 37.495 -1 38 C-1 37.34 -1 36.68 -1 36 C-1.66 35.67 -2.32 35.34 -3 35 C-2.01 35 -1.02 35 0 35 C3.06428051 24.66322255 3.06428051 24.66322255 3 14 C1.68236671 11.4810733 1.68236671 11.4810733 0 10 C0.66 10 1.32 10 2 10 C2 7.03 2 4.06 2 1 C1.34 0.67 0.68 0.34 0 0 Z " fill="#C27B78" transform="translate(107,70)"/>
<path d="M0 0 C1.97613281 0.00386719 1.97613281 0.00386719 3.9921875 0.0078125 C5.29414062 0.00523438 6.59609375 0.00265625 7.9375 0 C17.87913969 0.33599975 17.87913969 0.33599975 20.8046875 2.6953125 C21.1553125 3.1696875 21.5059375 3.6440625 21.8671875 4.1328125 C13.51455574 5.08739899 5.26934715 5.24320584 -3.1328125 5.1328125 C-3.6953125 3.1953125 -3.6953125 3.1953125 -4.1328125 1.1328125 C-3.1328125 0.1328125 -3.1328125 0.1328125 0 0 Z " fill="#1B405D" transform="translate(74.1328125,110.8671875)"/>
<path d="M0 0 C-6.27375725 3.15045819 -11.72239423 5.22049851 -18.62890625 6.4609375 C-21.6969207 7.15844326 -24.25478804 8.49013342 -27 10 C-27.66 10 -28.32 10 -29 10 C-28.8125 7.625 -28.8125 7.625 -28 5 C-19.43303909 0.79383868 -9.43837995 -0.57525115 0 0 Z " fill="#EDD098" transform="translate(75,122)"/>
<path d="M0 0 C0.66 0 1.32 0 2 0 C0.68 11.55 -0.64 23.1 -2 35 C-5.42673126 30.43102499 -5.29505369 29.73455051 -4.70703125 24.3359375 C-4.57103516 23.04945312 -4.43503906 21.76296875 -4.29492188 20.4375 C-4.21556396 19.77105469 -4.13620605 19.10460937 -4.05444336 18.41796875 C-3.81269724 16.37666553 -3.59870203 14.33384735 -3.38867188 12.2890625 C-2.27800766 2.27800766 -2.27800766 2.27800766 0 0 Z " fill="#B46451" transform="translate(114,34)"/>
<path d="M0 0 C0 1.65 0 3.3 0 5 C-6.6 5 -13.2 5 -20 5 C-20 4.34 -20 3.68 -20 3 C-13.45841601 -0.65111665 -7.36120371 -0.29887594 0 0 Z " fill="#F6DDBA" transform="translate(25,184)"/>
<path d="M0 0 C3.01047291 1.15106317 4.25846234 2.14601763 6.125 4.8125 C7.35402825 11.43034441 5.29954856 17.61244785 3.125 23.8125 C2.795 23.8125 2.465 23.8125 2.125 23.8125 C1.92482539 19.50874593 2.49148781 16.75214705 4.125 12.8125 C4.5063074 10.48652489 4.84960254 8.15337842 5.125 5.8125 C2.00302522 7.1214572 2.00302522 7.1214572 0.125 9.8125 C-0.865 9.8125 -1.855 9.8125 -2.875 9.8125 C-3.205 6.8425 -3.535 3.8725 -3.875 0.8125 C-1.875 -0.1875 -1.875 -0.1875 0 0 Z " fill="#3A5288" transform="translate(104.875,79.1875)"/>
<path d="M0 0 C0.99 0.33 1.98 0.66 3 1 C3 1.66 3 2.32 3 3 C3.66 3 4.32 3 5 3 C4.67 5.31 4.34 7.62 4 10 C3.67 9.34 3.34 8.68 3 8 C2.34 8 1.68 8 1 8 C1 8.66 1 9.32 1 10 C0.34 10 -0.32 10 -1 10 C-1 10.99 -1 11.98 -1 13 C2.63 13 6.26 13 10 13 C10 13.33 10 13.66 10 14 C8.06257659 14.02703381 6.12504521 14.04641125 4.1875 14.0625 C3.10855469 14.07410156 2.02960938 14.08570312 0.91796875 14.09765625 C-2 14 -2 14 -5 13 C-5.33 11.02 -5.66 9.04 -6 7 C-4.02 7 -2.04 7 0 7 C0 4.69 0 2.38 0 0 Z " fill="#E1A19B" transform="translate(76,97)"/>
<path d="M0 0 C0.33 0 0.66 0 1 0 C1.33 7.59 1.66 15.18 2 23 C2.66 23 3.32 23 4 23 C3.48594831 27.96916636 2.76615118 32.29026351 1 37 C-0.32 36.67 -1.64 36.34 -3 36 C-2.125 31.125 -2.125 31.125 -1 30 C-0.84126045 27.78312006 -0.74866163 25.56144702 -0.68359375 23.33984375 C-0.66281265 22.67537735 -0.64203156 22.01091095 -0.62062073 21.3263092 C-0.55506342 19.19681457 -0.49621215 17.06719332 -0.4375 14.9375 C-0.39432061 13.49673153 -0.35070651 12.05597601 -0.30664062 10.61523438 C-0.19937607 7.0769596 -0.09812629 3.53854131 0 0 Z " fill="#35516E" transform="translate(80,62)"/>
<path d="M0 0 C0.33 1.32 0.66 2.64 1 4 C1.61875 4.061875 2.2375 4.12375 2.875 4.1875 C5 5 5 5 6.25 7.5625 C6.4975 8.366875 6.745 9.17125 7 10 C7.66 10 8.32 10 9 10 C9 11.32 9 12.64 9 14 C6.03 14 3.06 14 0 14 C0 9.38 0 4.76 0 0 Z " fill="#4B5A62" transform="translate(85,61)"/>
<path d="M0 0 C0.33 1.32 0.66 2.64 1 4 C0.01 4.495 0.01 4.495 -1 5 C-1.309375 5.61875 -1.61875 6.2375 -1.9375 6.875 C-3 9 -3 9 -4.4375 10.375 C-7.64843216 13.71436945 -8.90668672 17.20017186 -9.4375 21.75 C-9.623125 22.8225 -9.80875 23.895 -10 25 C-12.0625 26.4375 -12.0625 26.4375 -14 27 C-13.9175 27.70125 -13.835 28.4025 -13.75 29.125 C-14.0808255 32.92949327 -15.75313314 34.98077266 -18 38 C-19 36 -19 36 -18.328125 33.7578125 C-17.97234375 32.88898438 -17.6165625 32.02015625 -17.25 31.125 C-16.90453125 30.26132813 -16.5590625 29.39765625 -16.203125 28.5078125 C-15 26 -15 26 -13.4453125 23.98828125 C-11.77875562 21.69563949 -11.27653072 19.80823661 -10.625 17.0625 C-9.34811327 12.46165417 -7.64141692 10.1745686 -4 7 C-2.70480005 4.83379456 -2.70480005 4.83379456 -2 3 C-1.34 3 -0.68 3 0 3 C0 2.01 0 1.02 0 0 Z " fill="#EEE5D1" transform="translate(45,128)"/>
<path d="M0 0 C2.90965153 2.90965153 2.88018813 6.0568039 3 10 C2.75588293 13.49422474 2.24827536 16.9189998 1.6875 20.375 C1.55666016 21.27605469 1.42582031 22.17710938 1.29101562 23.10546875 C0.26179847 29.73820153 0.26179847 29.73820153 -2 32 C-2.17590251 27.33858352 -1.92467969 23.20281564 -1 18.625 C0.04596891 13.35832557 0.20902895 8.35346374 0 3 C-2.64 3 -5.28 3 -8 3 C-7.67 2.01 -7.34 1.02 -7 0 C-4.29393021 -1.35303489 -2.8671629 -0.7884698 0 0 Z " fill="#D5776E" transform="translate(125,29)"/>
<path d="M0 0 C0.99 0.33 1.98 0.66 3 1 C4.125 6.625 4.125 6.625 3 10 C-0.73487777 9.5020163 -2.81237635 9.12508244 -6 7 C-5.67 5.68 -5.34 4.36 -5 3 C-3.35 2.67 -1.7 2.34 0 2 C0 1.34 0 0.68 0 0 Z " fill="#DBDFE4" transform="translate(106,70)"/>
<path d="M0 0 C0.66 0 1.32 0 2 0 C2.28780289 3.05071066 2.43668263 5.95939503 2 9 C-1.17433007 11.90980256 -2.6524883 12 -7 12 C-6.35494404 8.51669784 -5.01782732 5.90567134 -3 3 C-2.34 3 -1.68 3 -1 3 C-0.67 2.01 -0.34 1.02 0 0 Z " fill="#6D94C9" transform="translate(33,172)"/>
<path d="M0 0 C0.33 0 0.66 0 1 0 C1 2.64 1 5.28 1 8 C1.99 8.33 2.98 8.66 4 9 C3.34 9 2.68 9 2 9 C2 9.66 2 10.32 2 11 C-4.27 11 -10.54 11 -17 11 C-16.67 8.69 -16.34 6.38 -16 4 C-16.66 3.67 -17.32 3.34 -18 3 C-17.01 2.67 -16.02 2.34 -15 2 C-15 4.31 -15 6.62 -15 9 C-10.38 8.67 -5.76 8.34 -1 8 C-0.67 5.36 -0.34 2.72 0 0 Z " fill="#68887C" transform="translate(97,96)"/>
<path d="M0 0 C3 1 3 1 5 2 C4.34 5.96 3.68 9.92 3 14 C1.68 13.67 0.36 13.34 -1 13 C-1.02686553 11.02090602 -1.04633375 9.04171029 -1.0625 7.0625 C-1.07410156 5.96035156 -1.08570313 4.85820312 -1.09765625 3.72265625 C-1 1 -1 1 0 0 Z " fill="#B36C57" transform="translate(44,138)"/>
<path d="M0 0 C0.33 0 0.66 0 1 0 C1 3.63 1 7.26 1 11 C1.66 11 2.32 11 3 11 C3.66 8.03 4.32 5.06 5 2 C5.33 2 5.66 2 6 2 C5.56826496 8.15222436 4.34594658 11.81917949 1 17 C-0.32 16.34 -1.64 15.68 -3 15 C-2.34 14.67 -1.68 14.34 -1 14 C-1 11.36 -1 8.72 -1 6 C-2.65 6 -4.3 6 -6 6 C-6 5.67 -6 5.34 -6 5 C-4.35 5 -2.7 5 -1 5 C-0.67 3.35 -0.34 1.7 0 0 Z " fill="#C8786B" transform="translate(99,121)"/>
<path d="M0 0 C-0.33 1.32 -0.66 2.64 -1 4 C-4.96 4 -8.92 4 -13 4 C-13 3.67 -13 3.34 -13 3 C-16.3 2.67 -19.6 2.34 -23 2 C-23 1.67 -23 1.34 -23 1 C-21.86820312 0.93941406 -20.73640625 0.87882812 -19.5703125 0.81640625 C-18.08852855 0.73200083 -16.6067584 0.64735283 -15.125 0.5625 C-14.37863281 0.52318359 -13.63226563 0.48386719 -12.86328125 0.44335938 C-1.04906952 -0.24846383 -1.04906952 -0.24846383 0 0 Z " fill="#F0A595" transform="translate(104,107)"/>
<path d="M0 0 C0.33 0 0.66 0 1 0 C1 1.65 1 3.3 1 5 C-0.98 5 -2.96 5 -5 5 C-4.67 6.98 -4.34 8.96 -4 11 C-3.01 11.33 -2.02 11.66 -1 12 C-1.99 12.33 -2.98 12.66 -4 13 C-4 14.32 -4 15.64 -4 17 C-5.32 16.67 -6.64 16.34 -8 16 C-8 15.34 -8 14.68 -8 14 C-7.34 14 -6.68 14 -6 14 C-6.33 13.34 -6.66 12.68 -7 12 C-7.06950541 10.45976004 -7.08452357 8.91665012 -7.0625 7.375 C-7.05347656 6.55773437 -7.04445313 5.74046875 -7.03515625 4.8984375 C-7.02355469 4.27195312 -7.01195313 3.64546875 -7 3 C-4.69 3 -2.38 3 0 3 C0 2.01 0 1.02 0 0 Z " fill="#A6ACD7" transform="translate(75,99)"/>
<path d="M0 0 C0.48984375 0.61359375 0.9796875 1.2271875 1.484375 1.859375 C4.84571185 4.719643 8.00460676 5.33491524 12.25 6.25 C12.99507812 6.42273438 13.74015625 6.59546875 14.5078125 6.7734375 C16.33560287 7.19523528 18.16744792 7.59939559 20 8 C20 8.33 20 8.66 20 9 C13.84218201 9.19548629 7.8651218 9.12086994 2 7 C1.67 6.34 1.34 5.68 1 5 C-1.11846285 4.31270746 -1.11846285 4.31270746 -3.5625 3.875 C-4.38878906 3.70742187 -5.21507813 3.53984375 -6.06640625 3.3671875 C-6.70449219 3.24601562 -7.34257813 3.12484375 -8 3 C-8 2.67 -8 2.34 -8 2 C-5.36 2 -2.72 2 0 2 C0 1.34 0 0.68 0 0 Z " fill="#E2E0BE" transform="translate(77,119)"/>
<path d="M0 0 C0.99 0 1.98 0 3 0 C2.91320858 2.46008778 2.80639045 4.91643517 2.6875 7.375 C2.66494141 8.07367188 2.64238281 8.77234375 2.61914062 9.4921875 C2.51171875 11.5234375 2.51171875 11.5234375 2 15 C1.01 15.66 0.02 16.32 -1 17 C-1.33 12.05 -1.66 7.1 -2 2 C-1.34 2 -0.68 2 0 2 C0 1.34 0 0.68 0 0 Z " fill="#CBDFE9" transform="translate(83,59)"/>
<path d="M0 0 C0.33 0 0.66 0 1 0 C1 1.98 1 3.96 1 6 C-5.6 6 -12.2 6 -19 6 C-19 4.68 -19 3.36 -19 2 C-15.7 1.67 -12.4 1.34 -9 1 C-10.98 1.99 -10.98 1.99 -13 3 C-13 3.66 -13 4.32 -13 5 C-8.71 5 -4.42 5 0 5 C0 3.35 0 1.7 0 0 Z " fill="#DECAA5" transform="translate(44,183)"/>
<path d="M0 0 C3.17119503 1.09351553 4.00783543 2.0126988 5.8125 4.9375 C7 8 7 8 6 11 C5.34 11 4.68 11 4 11 C2.37485532 12.45833358 2.37485532 12.45833358 1 14 C0.67 13.34 0.34 12.68 0 12 C0.66 12 1.32 12 2 12 C2 10.68 2 9.36 2 8 C1.01 7.67 0.02 7.34 -1 7 C-1 6.34 -1 5.68 -1 5 C-0.01 5 0.98 5 2 5 C1.34 3.35 0.68 1.7 0 0 Z " fill="#37515C" transform="translate(101,53)"/>
<path d="M0 0 C1.98 0.66 3.96 1.32 6 2 C6 3.65 6 5.3 6 7 C3.1875 7.625 3.1875 7.625 0 8 C-0.99 7.34 -1.98 6.68 -3 6 C-2.34 5.34 -1.68 4.68 -1 4 C-0.3574765 1.93125966 -0.3574765 1.93125966 0 0 Z " fill="#DA9D89" transform="translate(37,177)"/>
<path d="M0 0 C0.66 0 1.32 0 2 0 C2.26691575 4.77562782 1.44685759 8.19287202 -0.3125 12.625 C-0.74175781 13.73101562 -1.17101562 14.83703125 -1.61328125 15.9765625 C-2.84511814 18.66231391 -4.11988777 20.73945451 -6 23 C-6.99 22.67 -7.98 22.34 -9 22 C-8.34 22 -7.68 22 -7 22 C-5.54649178 19.26589159 -4.52145267 16.65798354 -3.7109375 13.671875 C-3.49179688 12.87265625 -3.27265625 12.0734375 -3.046875 11.25 C-2.71429688 10.0125 -2.71429688 10.0125 -2.375 8.75 C-2.14554687 7.90953125 -1.91609375 7.0690625 -1.6796875 6.203125 C-1.11604475 4.13643491 -0.55751838 2.06835064 0 0 Z " fill="#3D374D" transform="translate(107,116)"/>
<path d="M0 0 C0.66 0.33 1.32 0.66 2 1 C2 2.32 2 3.64 2 5 C2.66 5 3.32 5 4 5 C4.33 3.35 4.66 1.7 5 0 C5.33 0.99 5.66 1.98 6 3 C6.66 3.33 7.32 3.66 8 4 C7.34 4 6.68 4 6 4 C5.690625 4.639375 5.38125 5.27875 5.0625 5.9375 C4 8 4 8 3 9 C1.33382885 9.04063832 -0.33388095 9.042721 -2 9 C-1.34 6.03 -0.68 3.06 0 0 Z " fill="#D5AFA0" transform="translate(94,74)"/>
<path d="M0 0 C0.99 0.33 1.98 0.66 3 1 C2.54625 1.61875 2.0925 2.2375 1.625 2.875 C-0.56839052 7.0930587 -1.23083349 11.33975586 -2 16 C-2.99 16.33 -3.98 16.66 -5 17 C-4.93976506 14.91587093 -4.85091679 12.83255565 -4.75 10.75 C-4.70359375 9.58984375 -4.6571875 8.4296875 -4.609375 7.234375 C-3.91208725 3.53338618 -2.88214816 2.32877571 0 0 Z " fill="#437B8C" transform="translate(87,79)"/>
<path d="M0 0 C-0.66 0.66 -1.32 1.32 -2 2 C1.63 2.33 5.26 2.66 9 3 C9 3.33 9 3.66 9 4 C2.4 4 -4.2 4 -11 4 C-11 3.34 -11 2.68 -11 2 C-3.57142857 -1.57142857 -3.57142857 -1.57142857 0 0 Z " fill="#DDDBD4" transform="translate(16,185)"/>
<path d="M0 0 C0.66 0.33 1.32 0.66 2 1 C2.24091535 8.2274605 1.34495828 14.90294338 0 22 C-0.33 22 -0.66 22 -1 22 C-1.02716824 19.45826023 -1.04691969 16.91681585 -1.0625 14.375 C-1.07087891 13.66214844 -1.07925781 12.94929688 -1.08789062 12.21484375 C-1.10710296 8.02655562 -0.8267327 4.1271538 0 0 Z " fill="#2E293F" transform="translate(127,39)"/>
<path d="M0 0 C1.98 0.66 3.96 1.32 6 2 C6 3.32 6 4.64 6 6 C2.37 6 -1.26 6 -5 6 C-3.68 5.34 -2.36 4.68 -1 4 C-0.19471111 1.94999129 -0.19471111 1.94999129 0 0 Z " fill="#DEAEA2" transform="translate(19,178)"/>
<path d="M0 0 C0 1.98 0 3.96 0 6 C-2.64 6 -5.28 6 -8 6 C-7.1875 3.5625 -7.1875 3.5625 -6 1 C-3 0 -3 0 0 0 Z " fill="#847E9F" transform="translate(147,185)"/>
<path d="M0 0 C0.33 0 0.66 0 1 0 C1 1.98 1 3.96 1 6 C3.97 6 6.94 6 10 6 C10 4.02 10 2.04 10 0 C10.33 0 10.66 0 11 0 C11 2.31 11 4.62 11 7 C4.565 7.495 4.565 7.495 -2 8 C-2 7.34 -2 6.68 -2 6 C-2.66 5.67 -3.32 5.34 -4 5 C-3.01 5 -2.02 5 -1 5 C-0.67 3.35 -0.34 1.7 0 0 Z " fill="#A5696E" transform="translate(108,100)"/>
<path d="M0 0 C0.66 0 1.32 0 2 0 C2.33 1.65 2.66 3.3 3 5 C3.99 5.33 4.98 5.66 6 6 C6.33 6.99 6.66 7.98 7 9 C4.69 9 2.38 9 0 9 C0 6.03 0 3.06 0 0 Z " fill="#1F4254" transform="translate(86,66)"/>
<path d="M0 0 C1.65 0 3.3 0 5 0 C4.67 1.65 4.34 3.3 4 5 C8.82442184 3.73053486 8.82442184 3.73053486 12 0 C12.99 0 13.98 0 15 0 C15 0.66 15 1.32 15 2 C14.34 2 13.68 2 13 2 C13 2.66 13 3.32 13 4 C9.3558226 6.4294516 7.28758728 6.16179575 3 6 C2.87625 5.195625 2.7525 4.39125 2.625 3.5625 C2.315625 2.2940625 2.315625 2.2940625 2 1 C1.34 0.67 0.68 0.34 0 0 Z " fill="#638780" transform="translate(88,78)"/>
<path d="M0 0 C1.98 0.99 3.96 1.98 6 3 C6 4.32 6 5.64 6 7 C5.34 7 4.68 7 4 7 C3.67 8.32 3.34 9.64 3 11 C0.03 10.505 0.03 10.505 -3 10 C-2.67 9.34 -2.34 8.68 -2 8 C-0.35 8 1.3 8 3 8 C3.34626591 4.99969942 3.34626591 4.99969942 1.5 3.4375 C0.7575 2.7259375 0.7575 2.7259375 0 2 C0 1.34 0 0.68 0 0 Z " fill="#DDAB9E" transform="translate(97,58)"/>
<path d="M0 0 C1.27875 -0.061875 2.5575 -0.12375 3.875 -0.1875 C4.95394531 -0.23970703 4.95394531 -0.23970703 6.0546875 -0.29296875 C6.69664063 -0.19628906 7.33859375 -0.09960938 8 0 C10.13586678 3.20380017 10.23132175 4.01939967 10.125 7.6875 C10.10695312 8.49574219 10.08890625 9.30398437 10.0703125 10.13671875 C10.03550781 11.05904297 10.03550781 11.05904297 10 12 C9.34 11.67 8.68 11.34 8 11 C7.66073053 8.66752239 7.32759934 6.33414529 7 4 C5.16116119 1.71271266 5.16116119 1.71271266 2.375 1.875 C1.199375 1.936875 1.199375 1.936875 0 2 C0 1.34 0 0.68 0 0 Z " fill="#F0D1D2" transform="translate(119,27)"/>
<path d="M0 0 C3.875 1.75 3.875 1.75 5 4 C5.76082218 10.78887482 4.2343819 16.6293516 2 23 C1.67 23 1.34 23 1 23 C0.85374364 19.85548824 0.79496211 17.49977985 2 14.5625 C3.31141229 11.20200602 3.33110764 8.57596255 3 5 C1.60414215 3.18523997 1.60414215 3.18523997 0 2 C0 1.34 0 0.68 0 0 Z " fill="#4F4A68" transform="translate(106,80)"/>
<path d="M0 0 C-0.31049726 1.43793392 -0.6234776 2.8753318 -0.9375 4.3125 C-1.11152344 5.11300781 -1.28554687 5.91351563 -1.46484375 6.73828125 C-2 9 -2 9 -3 12 C-3.66 12 -4.32 12 -5 12 C-5.36666667 4.66666667 -5.36666667 4.66666667 -3.625 1.5 C-2 0 -2 0 0 0 Z " fill="#344B55" transform="translate(91,53)"/>
<path d="M0 0 C4.29 0.33 8.58 0.66 13 1 C10.31907309 3.68092691 8.60832637 3.38670257 4.875 3.625 C3.77929688 3.69976562 2.68359375 3.77453125 1.5546875 3.8515625 C0.71164063 3.90054688 -0.13140625 3.94953125 -1 4 C-0.67 2.68 -0.34 1.36 0 0 Z " fill="#1F3658" transform="translate(71,111)"/>
<path d="M0 0 C0.66 0 1.32 0 2 0 C2 2.97 2 5.94 2 9 C0.68 8.34 -0.64 7.68 -2 7 C-2.125 4.625 -2.125 4.625 -2 2 C-1.34 1.34 -0.68 0.68 0 0 Z " fill="#BFADBF" transform="translate(57,96)"/>
<path d="M0 0 C0.33 0.99 0.66 1.98 1 3 C-0.175625 3.928125 -0.175625 3.928125 -1.375 4.875 C-3.96837647 6.89858661 -3.96837647 6.89858661 -6 9 C-7 7 -7 7 -6.0625 3.875 C-5.5365625 2.451875 -5.5365625 2.451875 -5 1 C-3.35 0.67 -1.7 0.34 0 0 Z " fill="#C4DBE7" transform="translate(55,47)"/>
<path d="M0 0 C0 0.99 0 1.98 0 3 C-3.96 3 -7.92 3 -12 3 C-7.09396701 -0.67952474 -5.82490317 -0.29124516 0 0 Z " fill="#F6C886" transform="translate(43,184)"/>
<path d="M0 0 C0.33 0 0.66 0 1 0 C1.22084624 6.09781001 1.01167675 11.21642935 -1 17 C-1.66 17 -2.32 17 -3 17 C-2.67 14.03 -2.34 11.06 -2 8 C-1.34 8 -0.68 8 0 8 C0 5.36 0 2.72 0 0 Z " fill="#D8796D" transform="translate(112,85)"/>
<path d="M0 0 C1.67542976 0.28604898 3.34385343 0.61781233 5 1 C5.33 1.99 5.66 2.98 6 4 C4.35 4.33 2.7 4.66 1 5 C0.34 3.68 -0.32 2.36 -1 1 C-0.67 0.67 -0.34 0.34 0 0 Z " fill="#A3C7EE" transform="translate(64,95)"/>
<path d="M0 0 C0.33 0.99 0.66 1.98 1 3 C1.99 2.67 2.98 2.34 4 2 C5.5625 3.8125 5.5625 3.8125 7 6 C6.67 6.99 6.34 7.98 6 9 C5.34 9 4.68 9 4 9 C4 7.35 4 5.7 4 4 C2.68 4.33 1.36 4.66 0 5 C0 3.35 0 1.7 0 0 Z M-2 5 C0 6 0 6 0 6 Z " fill="#313E45" transform="translate(104,61)"/>
<path d="M0 0 C6.11090483 -0.09945415 11.97403427 -0.0712828 18 1 C18 1.33 18 1.66 18 2 C11.84765625 2.87890625 11.84765625 2.87890625 10 3 C9.67 2.67 9.34 2.34 9 2 C7.48530552 1.76807135 5.96245438 1.58784762 4.4375 1.4375 C3.61121094 1.35371094 2.78492187 1.26992187 1.93359375 1.18359375 C1.29550781 1.12300781 0.65742187 1.06242187 0 1 C0 0.67 0 0.34 0 0 Z " fill="#625766" transform="translate(75,111)"/>
<path d="M0 0 C1.98 0.99 1.98 0.99 4 2 C4 4.31 4 6.62 4 9 C3.67 8.34 3.34 7.68 3 7 C2.34 7 1.68 7 1 7 C0.67 4.69 0.34 2.38 0 0 Z " fill="#CEDCE4" transform="translate(54,103)"/>
<path d="M0 0 C0.66 0.33 1.32 0.66 2 1 C1.67 4.63 1.34 8.26 1 12 C-1.23551759 8.64672361 -1.17283528 8.09256343 -0.625 4.3125 C-0.51414062 3.50425781 -0.40328125 2.69601563 -0.2890625 1.86328125 C-0.19367188 1.24839844 -0.09828125 0.63351563 0 0 Z " fill="#2C273C" transform="translate(120,94)"/>
<path d="M0 0 C0 0.66 0 1.32 0 2 C-2.64 2.33 -5.28 2.66 -8 3 C-7.67 2.01 -7.34 1.02 -7 0 C-4.3333581 -1.33332095 -2.83319697 -0.67102033 0 0 Z " fill="#E28776" transform="translate(125,29)"/>
<path d="M0 0 C0 1.65 0 3.3 0 5 C-1.65 4.67 -3.3 4.34 -5 4 C-5 3.01 -5 2.02 -5 1 C-2 0 -2 0 0 0 Z " fill="#F7DABA" transform="translate(26,175)"/>
<path d="M0 0 C2.31 0 4.62 0 7 0 C6.67 2.31 6.34 4.62 6 7 C5.67 7 5.34 7 5 7 C5 5.35 5 3.7 5 2 C3.35 2.33 1.7 2.66 0 3 C0 2.01 0 1.02 0 0 Z " fill="#B37170" transform="translate(100,116)"/>
<path d="M0 0 C2.97 0.495 2.97 0.495 6 1 C5.01 1.66 4.02 2.32 3 3 C3 4.32 3 5.64 3 7 C1.68 6.67 0.36 6.34 -1 6 C-1 5.34 -1 4.68 -1 4 C-0.34 4 0.32 4 1 4 C0.67 2.68 0.34 1.36 0 0 Z " fill="#89A6D2" transform="translate(68,109)"/>
<path d="M0 0 C3.63 0.33 7.26 0.66 11 1 C11 1.33 11 1.66 11 2 C9.9275 2.12375 8.855 2.2475 7.75 2.375 C4.62136385 2.89643936 2.66519576 3.40088254 0 5 C0 3.35 0 1.7 0 0 Z " fill="#C6D9E6" transform="translate(88,49)"/>
<path d="M0 0 C0.33 0 0.66 0 1 0 C0.67 3.96 0.34 7.92 0 12 C-0.33 12 -0.66 12 -1 12 C-1 10.02 -1 8.04 -1 6 C-2.65 6 -4.3 6 -6 6 C-6 5.67 -6 5.34 -6 5 C-4.35 5 -2.7 5 -1 5 C-0.67 3.35 -0.34 1.7 0 0 Z " fill="#C19679" transform="translate(99,121)"/>
<path d="M0 0 C0 0.33 0 0.66 0 1 C-4.53701494 2.45184478 -8.18061476 3.23509196 -13 3 C-9.21656826 -0.94792877 -5.07874402 -0.29300446 0 0 Z " fill="#ECE0CE" transform="translate(65,122)"/>
<path d="M0 0 C0.66 0 1.32 0 2 0 C2 1.98 2 3.96 2 6 C1.01 6.33 0.02 6.66 -1 7 C-1.04254356 5.00045254 -1.04080783 2.99958364 -1 1 C-0.67 0.67 -0.34 0.34 0 0 Z " fill="#F2725D" transform="translate(102,119)"/>
<path d="M0 0 C1.98 0 3.96 0 6 0 C6 0.66 6 1.32 6 2 C4.68 2 3.36 2 2 2 C2.33 3.32 2.66 4.64 3 6 C2.34 6 1.68 6 1 6 C0.67 4.02 0.34 2.04 0 0 Z " fill="#CBAABA" transform="translate(70,104)"/>
<path d="M0 0 C1.32 0.33 2.64 0.66 4 1 C4 2.32 4 3.64 4 5 C2.68 5 1.36 5 0 5 C0 3.35 0 1.7 0 0 Z " fill="#EE9277" transform="translate(39,178)"/>
<path d="M0 0 C0.99 0.33 1.98 0.66 3 1 C3 1.66 3 2.32 3 3 C3.66 3 4.32 3 5 3 C5 4.65 5 6.3 5 8 C4.67 6.68 4.34 5.36 4 4 C3.01 4 2.02 4 1 4 C0.67 4.66 0.34 5.32 0 6 C0 4.02 0 2.04 0 0 Z " fill="#A49198" transform="translate(76,97)"/>
<path d="M0 0 C0.99 0.33 1.98 0.66 3 1 C1.69593116 3.01920337 0.36176581 5.01924973 -1 7 C-1.33 7 -1.66 7 -2 7 C-2.125 4.625 -2.125 4.625 -2 2 C-1.34 1.34 -0.68 0.68 0 0 Z " fill="#315F81" transform="translate(87,79)"/>
<path d="M0 0 C0 0.99 0 1.98 0 3 C-1.65 3.66 -3.3 4.32 -5 5 C-5 3.68 -5 2.36 -5 1 C-3 0 -3 0 0 0 Z " fill="#38597A" transform="translate(106,79)"/>
</svg>
